<?xml version="1.0" encoding="UTF-8" standalone="no"?><!DOCTYPE svg PUBLIC "-//W3C//DTD SVG 1.1//EN" "http://www.w3.org/Graphics/SVG/1.1/DTD/svg11.dtd"><svg width="100%" height="100%" viewBox="0 0 3750 3750" version="1.1" xmlns="http://www.w3.org/2000/svg" xmlns:xlink="http://www.w3.org/1999/xlink" xml:space="preserve" xmlns:serif="http://www.serif.com/" style="fill-rule:evenodd;clip-rule:evenodd;stroke-linejoin:round;stroke-miterlimit:2;"><path d="M-36.187,-62.127l480.155,1.605c129.854,0.434 229.697,11.294 299.531,32.58c69.834,21.287 122.304,51.872 157.409,91.756c35.106,39.884 58.887,88.112 71.344,144.684c12.457,56.573 18.685,144.119 18.685,262.639l0,164.915c0,120.859 -12.079,208.929 -36.238,264.21c-24.158,55.281 -68.512,97.628 -133.062,127.042c-64.549,29.415 -148.916,43.948 -253.1,43.599l-127.966,-0.427l0,762.583l-476.758,-1.593l0,-1893.59Zm476.758,325.574l0,481.878c13.589,0.825 25.291,1.254 35.106,1.287c43.787,0.146 74.175,-10.863 91.161,-33.029c16.987,-22.166 25.48,-68.337 25.48,-138.513l0,-155.558c0,-64.718 -9.814,-106.857 -29.443,-126.416c-19.629,-19.559 -60.397,-29.442 -122.304,-29.649Z" style="fill:#fff;fill-rule:nonzero;"/><path d="M1604.72,-56.643l0,1893.59l-476.757,-1.594l-0,-1893.59l476.757,1.593Z" style="fill:#fff;fill-rule:nonzero;"/><path d="M1796.1,-56.003l480.155,1.605c129.853,0.434 229.697,11.294 299.531,32.58c69.834,21.287 122.303,51.872 157.409,91.756c35.106,39.884 58.887,88.112 71.344,144.684c12.457,56.573 18.685,144.119 18.685,262.64l0,164.914c0,120.859 -12.079,208.929 -36.238,264.21c-24.159,55.281 -68.513,97.628 -133.062,127.042c-64.549,29.415 -148.916,43.948 -253.1,43.599l-127.966,-0.427l-0,762.583l-476.758,-1.593l0,-1893.59Zm476.758,325.574l-0,481.878c13.589,0.825 25.291,1.254 35.105,1.287c43.788,0.146 74.175,-10.863 91.162,-33.029c16.987,-22.166 25.48,-68.337 25.48,-138.513l-0,-155.558c-0,-64.718 -9.815,-106.857 -29.444,-126.416c-19.629,-19.559 -60.396,-29.442 -122.303,-29.649Z" style="fill:#fff;fill-rule:nonzero;"/><path d="M2960.25,-52.112l794.973,2.657l0,378.952l-318.216,-1.063l0,359.069l297.832,0.995l0,360.239l-297.832,-0.995l0,416.38l349.925,1.169l-0,378.953l-826.682,-2.764l-0,-1893.59Z" style="fill:#fff;fill-rule:nonzero;"/><path d="M1018.47,1876.25l0.621,376.45l-447.787,1127.43l449.65,0.761l0.621,376.45l-1112.9,-1.882l-0.451,-273.043l462.631,-1230.81l-410.167,-0.694l-0.621,-376.45l1058.4,1.79Z" style="fill:#ff9df5;fill-rule:nonzero;"/><path d="M1174.79,1876.52l1006.77,1.703l0.621,376.451l-402.995,-0.682l0.589,356.698l377.18,0.638l0.591,357.861l-377.181,-0.638l0.683,413.63l443.152,0.75l0.621,376.45l-1046.93,-1.77l-3.106,-1881.09Z" style="fill:#ff9df5;fill-rule:nonzero;"/><path d="M2395.25,1878.58l427.376,0.723c284.917,0.481 477.825,9.715 578.722,27.702c100.898,17.986 183.198,63.632 246.899,136.938c63.702,73.306 95.685,190.13 95.949,350.47c0.242,146.397 -22.064,244.732 -66.917,295.004c-44.854,50.272 -133.243,80.332 -265.168,90.178c119.552,24.215 199.917,56.496 241.096,96.844c41.179,40.348 66.815,77.378 76.91,111.09c10.095,33.712 15.267,126.477 15.518,278.297l0.819,496.124l-560.752,-0.948l-1.032,-625.094c-0.166,-100.697 -10.069,-163.068 -29.708,-187.113c-19.64,-24.045 -71.05,-36.138 -154.231,-36.279l1.4,848.175l-603.776,-1.021l-3.105,-1881.09Zm604.307,322.863l0.691,418.278c67.883,0.115 115.436,-7.357 142.66,-22.415c27.224,-15.059 40.767,-64.028 40.631,-146.91l-0.171,-103.407c-0.099,-59.644 -13.309,-98.783 -39.633,-117.417c-26.323,-18.635 -74.383,-28.011 -144.178,-28.129Z" style="fill:#ff9df5;fill-rule:nonzero;"/></svg>