<?xml version="1.0" encoding="UTF-8" standalone="no"?><!DOCTYPE svg PUBLIC "-//W3C//DTD SVG 1.1//EN" "http://www.w3.org/Graphics/SVG/1.1/DTD/svg11.dtd"><svg width="100%" height="100%" viewBox="0 0 3750 3750" version="1.1" xmlns="http://www.w3.org/2000/svg" xmlns:xlink="http://www.w3.org/1999/xlink" xml:space="preserve" xmlns:serif="http://www.serif.com/" style="fill-rule:evenodd;clip-rule:evenodd;stroke-linejoin:round;stroke-miterlimit:2;"><path d="M-36.187,-62.127l581.676,1.944c157.308,0.526 278.262,9.372 362.861,26.538c84.599,17.167 148.163,41.767 190.691,73.8c42.528,32.034 71.338,70.744 86.428,116.13c15.091,45.386 22.636,115.604 22.636,210.652l0,132.256c0,96.925 -14.633,167.537 -43.9,211.837c-29.267,44.3 -82.998,78.2 -161.195,101.701c-78.197,23.501 -180.402,35.041 -306.615,34.619l-155.022,-0.518l0,611.564l-577.56,-1.93l0,-1518.59Zm577.56,261.751l0,386.449c16.463,0.68 30.639,1.04 42.528,1.08c53.046,0.177 89.858,-8.611 110.436,-26.363c20.579,-17.753 30.868,-54.769 30.868,-111.048l-0,-124.752c-0,-51.901 -11.89,-85.709 -35.669,-101.421c-23.779,-15.713 -73.167,-23.694 -148.163,-23.945Z" style="fill:#fff;fill-rule:nonzero;"/><path d="M1374.1,-57.414l581.676,1.945c157.308,0.525 278.262,9.371 362.861,26.538c84.599,17.166 148.163,41.766 190.691,73.8c42.528,32.033 71.337,70.743 86.428,116.129c15.091,45.387 22.636,115.604 22.636,210.653l0,132.255c0,96.925 -14.633,167.538 -43.9,211.838c-29.267,44.3 -82.999,78.2 -161.195,101.701c-78.197,23.501 -180.402,35.04 -306.615,34.618l-155.022,-0.518l0,611.564l-577.56,-1.93l0,-1518.59Zm577.56,261.752l0,386.448c16.463,0.681 30.639,1.041 42.528,1.08c53.046,0.178 89.858,-8.61 110.436,-26.363c20.579,-17.753 30.868,-54.769 30.868,-111.048l-0,-124.751c-0,-51.902 -11.89,-85.709 -35.669,-101.421c-23.779,-15.713 -73.167,-23.695 -148.163,-23.945Z" style="fill:#fff;fill-rule:nonzero;"/><path d="M3750.19,-49.472l0,303.906l-430.126,909.343l430.126,1.438l0,303.906l-1064.58,-3.558l-0,-220.426l444.488,-992.775l-392.357,-1.312l0,-303.906l1012.45,3.384Z" style="fill:#fff;fill-rule:nonzero;"/><g transform="matrix(7.82509,0.0132353,0.00555888,3.36719,-243.566,1610.31)"><g transform="matrix(0.433879,0,0,1,9.62406,0)"><g transform="matrix(788.082,0,0,788.082,17,637)"><path d="M0.247,-0.791l-0,0.633l0.125,-0l-0,0.158l-0.331,0l0,-0.791l0.206,0Z" style="fill:#62afff;fill-rule:nonzero;"/></g><g transform="matrix(788.082,0,0,788.082,361.995,637)"><path d="M0.396,-0.791l0.118,0.791l-0.21,-0l-0.011,-0.142l-0.074,-0l-0.012,0.142l-0.213,-0l0.105,-0.791l0.297,0Zm-0.109,0.509c-0.01,-0.09 -0.02,-0.2 -0.031,-0.332c-0.021,0.151 -0.034,0.262 -0.039,0.332l0.07,-0Z" style="fill:#62afff;fill-rule:nonzero;"/></g></g><g transform="matrix(0.433879,0,0,1,197.749,0)"><g transform="matrix(788.082,0,0,788.082,349.306,637)"><path d="M0.479,-0.791l-0.15,0.505l0,0.286l-0.19,-0l-0,-0.286l-0.145,-0.505l0.189,0c0.029,0.155 0.046,0.259 0.05,0.312c0.011,-0.084 0.03,-0.188 0.057,-0.312l0.189,0Z" style="fill:#62afff;fill-rule:nonzero;"/></g></g></g></svg>