<?xml version="1.0" encoding="UTF-8" standalone="no"?><!DOCTYPE svg PUBLIC "-//W3C//DTD SVG 1.1//EN" "http://www.w3.org/Graphics/SVG/1.1/DTD/svg11.dtd"><svg width="100%" height="100%" viewBox="0 0 3750 3750" version="1.1" xmlns="http://www.w3.org/2000/svg" xmlns:xlink="http://www.w3.org/1999/xlink" xml:space="preserve" xmlns:serif="http://www.serif.com/" style="fill-rule:evenodd;clip-rule:evenodd;stroke-linejoin:round;stroke-miterlimit:2;"><path d="M-36.187,-62.127l581.676,1.944c157.308,0.526 278.262,9.372 362.861,26.538c84.599,17.167 148.163,41.767 190.691,73.8c42.528,32.034 71.338,70.744 86.428,116.13c15.091,45.386 22.636,115.604 22.636,210.652l0,132.256c0,96.925 -14.633,167.537 -43.9,211.837c-29.267,44.3 -82.998,78.2 -161.195,101.701c-78.197,23.501 -180.402,35.041 -306.615,34.619l-155.022,-0.518l0,611.564l-577.56,-1.93l0,-1518.59Zm577.56,261.751l0,386.449c16.463,0.68 30.639,1.04 42.528,1.08c53.046,0.177 89.858,-8.611 110.436,-26.363c20.579,-17.753 30.868,-54.769 30.868,-111.048l-0,-124.752c-0,-51.901 -11.89,-85.709 -35.669,-101.421c-23.779,-15.713 -73.167,-23.694 -148.163,-23.945Z" style="fill:#fff;fill-rule:nonzero;"/><path d="M1374.1,-57.414l581.676,1.945c157.308,0.525 278.262,9.371 362.861,26.538c84.599,17.166 148.163,41.766 190.691,73.8c42.528,32.033 71.337,70.743 86.428,116.129c15.091,45.387 22.636,115.604 22.636,210.653l0,132.255c0,96.925 -14.633,167.538 -43.9,211.838c-29.267,44.3 -82.999,78.2 -161.195,101.701c-78.197,23.501 -180.402,35.04 -306.615,34.618l-155.022,-0.518l0,611.564l-577.56,-1.93l0,-1518.59Zm577.56,261.752l0,386.448c16.463,0.681 30.639,1.041 42.528,1.08c53.046,0.178 89.858,-8.61 110.436,-26.363c20.579,-17.753 30.868,-54.769 30.868,-111.048l-0,-124.751c-0,-51.902 -11.89,-85.709 -35.669,-101.421c-23.779,-15.713 -73.167,-23.695 -148.163,-23.945Z" style="fill:#fff;fill-rule:nonzero;"/><path d="M3750.19,-49.472l0,303.906l-430.126,909.343l430.126,1.438l0,303.906l-1064.58,-3.558l-0,-220.426l444.488,-992.775l-392.357,-1.312l0,-303.906l1012.45,3.384Z" style="fill:#fff;fill-rule:nonzero;"/><path d="M549.305,1658.79l2.77,1677.95l334.456,0.566l0.694,419.81l-884.48,-1.496l-3.464,-2097.76l550.024,0.93Z" style="fill:#f57a00;fill-rule:nonzero;"/><path d="M1017.02,1659.58l411.538,0.696c265.649,0.449 445.309,12.846 538.979,37.191c93.67,24.345 164.938,64.201 213.804,119.567c48.866,55.366 79.452,116.964 91.758,184.793c12.306,67.83 18.623,201.083 18.951,399.758l1.212,734.669c0.311,188.31 -8.408,314.195 -26.159,377.654c-17.75,63.46 -48.805,113.076 -93.166,148.849c-44.361,35.773 -99.191,60.731 -164.491,74.873c-65.3,14.142 -163.709,21.102 -295.227,20.88l-693.736,-1.174l-3.463,-2097.76Zm550.616,359.842l2.279,1379.93c79.259,0.134 128.008,-15.548 146.246,-47.046c18.239,-31.498 27.242,-117.216 27.011,-257.153l-1.345,-815.002c-0.157,-95.019 -3.306,-155.923 -9.447,-182.711c-6.141,-26.788 -20.109,-46.464 -41.904,-59.026c-21.796,-12.562 -62.742,-18.893 -122.84,-18.995Z" style="fill:#f57a00;fill-rule:nonzero;"/><path d="M3803.72,1664.3l-276.448,2097.28l-835.487,-1.413l-321.262,-2098.29l580.072,0.981c68.373,577.961 117.302,1066.96 146.787,1466.99c27.748,-404.201 57.32,-763.035 88.716,-1076.5l37.549,-390.025l580.073,0.981Z" style="fill:#f57a00;fill-rule:nonzero;"/></svg>