<?xml version="1.0" encoding="UTF-8" standalone="no"?><!DOCTYPE svg PUBLIC "-//W3C//DTD SVG 1.1//EN" "http://www.w3.org/Graphics/SVG/1.1/DTD/svg11.dtd"><svg width="100%" height="100%" viewBox="0 0 3750 3750" version="1.1" xmlns="http://www.w3.org/2000/svg" xmlns:xlink="http://www.w3.org/1999/xlink" xml:space="preserve" xmlns:serif="http://www.serif.com/" style="fill-rule:evenodd;clip-rule:evenodd;stroke-linejoin:round;stroke-miterlimit:2;"><path d="M-36.187,-62.127l542.231,1.812c146.641,0.49 259.392,9.309 338.254,26.456c78.862,17.147 138.116,41.733 177.76,73.757c39.644,32.024 66.5,70.727 80.567,116.11c14.067,45.383 21.101,115.599 21.101,210.647l-0,132.256c-0,96.925 -13.641,167.54 -40.923,211.847c-27.282,44.307 -77.37,78.219 -150.264,101.738c-72.895,23.518 -168.169,35.081 -285.822,34.688l-144.51,-0.483l0,611.564l-538.394,-1.799l0,-1518.59Zm538.394,261.62l0,386.449c15.346,0.676 28.561,1.033 39.644,1.07c49.449,0.166 83.765,-8.631 102.947,-26.388c19.183,-17.758 28.774,-54.776 28.774,-111.055l0,-124.751c0,-51.902 -11.083,-85.706 -33.25,-101.414c-22.166,-15.707 -68.205,-23.677 -138.115,-23.911Z" style="fill:#4ebfff;fill-rule:nonzero;"/><path d="M2369.96,-54.085l-189.269,670.962l285.182,847.951l-498.75,-1.667c-59.612,-151.605 -114.177,-336.257 -163.692,-553.956c-13.534,96.313 -32.457,198.182 -56.769,305.607l-50.654,247.443l-524.326,-1.752l195.663,-846.344l-195.663,-672.249l520.49,1.74c9.484,41.85 28.188,111.611 56.109,209.284c22.566,74.43 40.95,142.988 55.15,205.675l115.096,-414.203l451.433,1.509Z" style="fill:#4ebfff;fill-rule:nonzero;"/><path d="M2541.97,-53.51l381.096,1.274c254.064,0.849 426.069,8.615 516.014,23.298c89.946,14.683 163.266,51.665 219.962,110.948c56.695,59.282 85.043,153.644 85.043,283.086c-0,118.185 -20.035,197.534 -60.106,238.046c-40.07,40.512 -118.933,64.636 -236.586,72.372c106.57,19.741 178.185,45.931 214.846,78.571c36.66,32.639 59.466,62.574 68.418,89.805c8.952,27.232 13.428,102.129 13.428,224.692l-0,400.518l-500.029,-1.671l0,-504.634c0,-81.292 -8.738,-131.66 -26.216,-151.103c-17.478,-19.443 -63.303,-29.289 -137.476,-29.537l0,684.727l-538.394,-1.8l0,-1518.59Zm538.394,261.62l0,337.674c60.532,0.202 102.947,-5.753 127.245,-17.866c24.298,-12.112 36.447,-51.623 36.447,-118.533l0,-83.48c0,-48.15 -11.722,-79.768 -35.168,-94.854c-23.445,-15.086 -66.287,-22.733 -128.524,-22.941Z" style="fill:#4ebfff;fill-rule:nonzero;"/><path d="M856.307,2294.21l-380.33,-0.644l-0.257,-155.485c-0.12,-72.56 -5.06,-118.782 -14.82,-138.666c-9.76,-19.884 -25.988,-29.845 -48.685,-29.884c-24.642,-0.041 -43.263,13.326 -55.864,40.103c-12.601,26.777 -18.857,67.396 -18.767,121.856c0.116,70.009 7.311,122.747 21.585,158.214c13.636,35.466 52.281,78.283 115.934,128.451c182.53,144.429 297.541,262.898 345.032,355.405c47.491,92.508 71.407,241.555 71.746,447.141c0.247,149.439 -12.703,259.552 -38.849,330.34c-26.147,70.787 -76.792,130.088 -151.936,177.903c-75.143,47.814 -162.648,71.636 -262.513,71.467c-109.592,-0.185 -203.18,-27.985 -280.764,-83.4c-77.584,-55.415 -128.443,-125.901 -152.578,-211.458c-24.135,-85.558 -36.332,-206.943 -36.591,-364.156l-0.227,-137.346l380.33,0.644l0.421,255.255c0.13,78.606 5.563,129.148 16.3,151.625c10.737,22.477 29.724,33.739 56.96,33.785c27.236,0.046 47.477,-14.172 60.723,-42.656c13.247,-28.483 19.824,-70.798 19.731,-126.946c-0.204,-123.524 -12.982,-204.312 -38.335,-242.362c-26.002,-38.051 -89.982,-101.649 -191.939,-190.794c-101.959,-90.008 -169.508,-155.339 -202.647,-195.994c-33.139,-40.655 -60.63,-96.849 -82.472,-168.582c-21.842,-71.733 -32.855,-163.314 -33.039,-274.746c-0.266,-160.668 14.942,-278.12 45.622,-352.355c30.679,-74.235 80.354,-132.242 149.023,-174.021c68.669,-41.778 151.639,-62.585 248.91,-62.421c106.35,0.18 197.012,23.225 271.987,69.133c74.974,45.909 124.677,103.652 149.11,173.229c24.433,69.578 36.787,187.724 37.062,354.439l0.137,82.926Z" style="fill:#fff;fill-rule:nonzero;"/><path d="M1955.48,2889.5c0.347,210.769 -3.135,359.985 -10.448,447.649c-7.312,87.664 -30.525,167.743 -69.638,240.236c-39.113,72.494 -92.034,128.12 -158.762,166.878c-66.729,38.758 -144.514,58.063 -233.355,57.912c-84.302,-0.142 -160.041,-18.626 -227.219,-55.452c-67.178,-36.825 -121.254,-91.984 -162.229,-165.477c-40.975,-73.493 -65.425,-153.436 -73.349,-239.83c-7.924,-86.394 -12.065,-237.567 -12.421,-453.519l-0.593,-358.912c-0.348,-210.769 3.135,-359.985 10.447,-447.649c7.313,-87.664 30.526,-167.743 69.639,-240.236c39.113,-72.494 92.033,-128.12 158.762,-166.878c66.729,-38.758 144.514,-58.062 233.354,-57.912c84.302,0.143 160.042,18.627 227.219,55.452c67.178,36.825 121.255,91.984 162.23,165.477c40.975,73.493 65.424,153.436 73.349,239.83c7.924,86.394 12.064,237.567 12.421,453.519l0.593,358.912Zm-410.65,-690.011c-0.161,-97.611 -4.317,-160.027 -12.468,-187.251c-8.151,-27.224 -24.871,-40.857 -50.162,-40.9c-21.4,-0.036 -37.755,10.95 -49.067,32.958c-11.312,22.008 -16.879,87 -16.701,194.976l1.617,979.557c0.201,121.797 4.054,196.955 11.559,225.473c7.504,28.518 24.874,42.801 52.11,42.847c27.885,0.047 45.691,-16.335 53.418,-49.147c7.728,-32.811 11.489,-110.979 11.285,-234.504l-1.591,-964.009Z" style="fill:#fff;fill-rule:nonzero;"/><path d="M2515.68,1662.12l2.77,1677.95l249.014,0.421l0.693,419.81l-658.525,-1.113l-3.464,-2097.76l409.512,0.692Z" style="fill:#fff;fill-rule:nonzero;"/><path d="M3732.18,2892.51c0.348,210.769 -3.134,359.986 -10.447,447.649c-7.313,87.664 -30.526,167.743 -69.639,240.236c-39.112,72.494 -92.033,128.12 -158.762,166.878c-66.729,38.759 -144.513,58.063 -233.354,57.912c-84.302,-0.142 -160.042,-18.626 -227.219,-55.452c-67.178,-36.825 -121.255,-91.984 -162.23,-165.477c-40.975,-73.492 -65.424,-153.436 -73.349,-239.83c-7.924,-86.394 -12.064,-237.567 -12.421,-453.518l-0.592,-358.913c-0.348,-210.769 3.134,-359.985 10.447,-447.649c7.312,-87.664 30.525,-167.742 69.638,-240.236c39.113,-72.493 92.034,-128.119 158.762,-166.878c66.729,-38.758 144.514,-58.062 233.355,-57.912c84.302,0.143 160.041,18.627 227.219,55.452c67.178,36.825 121.254,91.984 162.229,165.477c40.975,73.493 65.425,153.436 73.349,239.83c7.925,86.394 12.065,237.567 12.421,453.519l0.593,358.912Zm-410.65,-690.011c-0.161,-97.61 -4.317,-160.027 -12.468,-187.251c-8.15,-27.224 -24.871,-40.857 -50.162,-40.9c-21.399,-0.036 -37.755,10.95 -49.067,32.958c-11.312,22.008 -16.879,87 -16.7,194.976l1.617,979.558c0.201,121.796 4.054,196.954 11.558,225.472c7.505,28.519 24.875,42.801 52.111,42.847c27.884,0.047 45.69,-16.335 53.418,-49.147c7.727,-32.811 11.489,-110.979 11.285,-234.504l-1.592,-964.009Z" style="fill:#fff;fill-rule:nonzero;"/></svg>