<?xml version="1.0" encoding="UTF-8" standalone="no"?><!DOCTYPE svg PUBLIC "-//W3C//DTD SVG 1.1//EN" "http://www.w3.org/Graphics/SVG/1.1/DTD/svg11.dtd"><svg width="100%" height="100%" viewBox="0 0 3750 3750" version="1.1" xmlns="http://www.w3.org/2000/svg" xmlns:xlink="http://www.w3.org/1999/xlink" xml:space="preserve" xmlns:serif="http://www.serif.com/" style="fill-rule:evenodd;clip-rule:evenodd;stroke-linejoin:round;stroke-miterlimit:2;"><path d="M917.107,1124.74l-384.984,-0l0,-279.254c0,-130.319 -4.923,-213.319 -14.769,-249.002c-9.846,-35.682 -26.256,-53.524 -49.231,-53.524c-24.943,0 -43.815,24.065 -56.615,72.196c-12.8,48.13 -19.2,121.101 -19.2,218.912c0,125.737 7.195,220.434 21.585,284.091c13.743,63.656 52.789,140.439 117.138,230.348c184.523,258.843 300.743,471.266 348.661,637.267c47.918,166.001 71.877,433.619 71.877,802.856c-0,268.394 -13.293,466.199 -39.877,593.415c-26.585,127.216 -77.949,233.875 -154.092,319.979c-76.144,86.103 -164.759,129.155 -265.846,129.155c-110.933,-0 -205.62,-49.646 -284.061,-148.936c-78.441,-99.29 -129.805,-225.73 -154.092,-379.32c-24.287,-153.59 -36.431,-371.563 -36.431,-653.921l0,-246.674l384.984,-0l0,458.442c0,141.179 5.416,231.936 16.246,272.273c10.831,40.337 30.031,60.505 57.6,60.505c27.569,0 48.082,-25.598 61.539,-76.795c13.456,-51.196 20.184,-127.216 20.184,-228.057c0,-221.852 -12.8,-366.909 -38.4,-435.171c-26.256,-68.263 -90.912,-182.291 -193.969,-342.087c-103.056,-161.347 -171.323,-278.478 -204.799,-351.395c-33.477,-72.916 -61.211,-173.758 -83.2,-302.525c-21.99,-128.767 -32.985,-293.217 -32.985,-493.349c0,-288.563 15.59,-499.555 46.769,-632.976c31.18,-133.422 81.559,-237.754 151.139,-312.998c69.579,-75.243 153.599,-112.865 252.061,-112.865c107.651,-0 199.384,41.112 275.199,123.337c75.816,82.225 126.031,185.782 150.646,310.67c24.616,124.889 36.923,337.045 36.923,636.467l0,148.936Z" style="fill:#39ff14;fill-rule:nonzero;"/><path d="M1798.09,-15.549l237.045,3767.61l-423.63,-0l-22.246,-677.192l-148.277,0l-24.923,677.192l-428.553,-0l211.446,-3767.61l599.138,-0Zm-219.692,2422.53c-20.975,-426.735 -42.021,-954.215 -63.139,-1582.44c-42.225,721.431 -68.743,1248.91 -79.553,1582.44l142.692,0Z" style="fill:#39ff14;fill-rule:nonzero;"/><path d="M2989.01,-15.549l-210.953,3767.61l-629.661,-0l-239.507,-3767.61l437.168,-0c50.81,1037.82 87.077,1915.92 108.8,2634.3c21.415,-726.037 44.149,-1370.6 68.2,-1933.69l28.785,-700.608l437.168,-0Z" style="fill:#39ff14;fill-rule:nonzero;"/><path d="M3058.92,-15.549l691.199,-0l-0,753.986l-276.677,0l0,714.426l258.954,-0l-0,716.752l-258.954,0l0,828.454l304.246,0l-0,753.987l-718.768,-0l-0,-3767.61Z" style="fill:#39ff14;fill-rule:nonzero;"/></svg>