<?xml version="1.0" encoding="UTF-8" standalone="no"?><!DOCTYPE svg PUBLIC "-//W3C//DTD SVG 1.1//EN" "http://www.w3.org/Graphics/SVG/1.1/DTD/svg11.dtd"><svg width="100%" height="100%" viewBox="0 0 3750 3750" version="1.1" xmlns="http://www.w3.org/2000/svg" xmlns:xlink="http://www.w3.org/1999/xlink" xml:space="preserve" xmlns:serif="http://www.serif.com/" style="fill-rule:evenodd;clip-rule:evenodd;stroke-linejoin:round;stroke-miterlimit:2;"><path d="M1191.3,84.198l1.21,732.703l-331.666,-0.561l4.835,2928.55l-558.524,-0.945l-4.835,-2928.55l-330.338,-0.559l-1.21,-732.703l1220.53,2.064Z" style="fill:#ff6c6c;fill-rule:nonzero;"/><path d="M2598.45,2230.41c0.608,367.859 -4.048,628.292 -13.966,781.298c-9.919,153.006 -41.528,292.784 -94.827,419.333c-53.3,126.55 -125.442,223.669 -216.428,291.358c-90.985,67.689 -197.062,101.431 -318.23,101.226c-114.978,-0.195 -218.289,-32.406 -309.934,-96.635c-91.646,-64.229 -165.434,-160.464 -221.365,-288.706c-55.932,-128.242 -89.328,-267.753 -100.191,-418.533c-10.862,-150.78 -16.604,-414.622 -17.226,-791.527l-1.034,-626.416c-0.608,-367.859 4.048,-628.292 13.966,-781.298c9.919,-153.006 41.528,-292.784 94.827,-419.334c53.3,-126.549 125.442,-223.669 216.428,-291.357c90.985,-67.689 197.062,-101.431 318.23,-101.226c114.978,0.194 218.289,32.406 309.934,96.635c91.646,64.228 165.434,160.463 221.365,288.705c55.932,128.242 89.328,267.753 100.191,418.533c10.862,150.78 16.604,414.623 17.226,791.528l1.034,626.416Zm-560.51,-1204.03c-0.281,-170.361 -5.989,-279.296 -17.123,-326.804c-11.134,-47.509 -33.947,-71.293 -68.44,-71.351c-29.187,-0.049 -51.487,19.135 -66.901,57.553c-15.415,38.418 -22.966,151.854 -22.655,340.306l2.822,1709.64c0.351,212.574 5.653,343.746 15.906,393.515c10.254,49.768 33.954,74.684 71.1,74.747c38.031,0.064 62.306,-28.54 72.825,-85.811c10.518,-57.272 15.6,-193.702 15.244,-409.292l-2.778,-1682.5Z" style="fill:#ff6c6c;fill-rule:nonzero;"/><path d="M2803.19,86.924l945.909,1.6l1.21,732.704l-387.385,-0.656l1.146,694.259l344.932,0.584l1.15,696.52l-344.932,-0.583l2.538,1537.77l-558.524,-0.945l-6.044,-3661.26Z" style="fill:#ff6c6c;fill-rule:nonzero;"/></svg>